<?xml version="1.0" encoding="utf-8"?>
<!-- Generator: Adobe Illustrator 27.7.0, SVG Export Plug-In . SVG Version: 6.00 Build 0)  -->
<svg version="1.1" id="Layer_3" xmlns="http://www.w3.org/2000/svg" xmlns:xlink="http://www.w3.org/1999/xlink" x="0px" y="0px"
	 viewBox="0 0 1500.6 1732.7" style="enable-background:new 0 0 1500.6 1732.7;" xml:space="preserve">
<style type="text/css">
	.st0{fill:#FFFFFF;}
	.st1{fill:#C70F2E;}
	.st2{fill:none;}
	.st3{fill-rule:evenodd;clip-rule:evenodd;fill:#FFFFFF;stroke:#C70F2E;stroke-width:6;}
	.st4{fill-rule:evenodd;clip-rule:evenodd;fill:#FFFFFF;stroke:#C70F2E;stroke-width:2;}
	.st5{fill-rule:evenodd;clip-rule:evenodd;fill:#C70F2E;stroke:#C70F2E;stroke-width:0.75;}
	.st6{fill-rule:evenodd;clip-rule:evenodd;fill:#002673;}
	.st7{fill-rule:evenodd;clip-rule:evenodd;fill:#FFFFFF;stroke:#002673;stroke-width:1.5;stroke-miterlimit:3.4777;}
	.st8{fill:#002673;}
	.st9{fill-rule:evenodd;clip-rule:evenodd;fill:#002673;stroke:#002673;stroke-width:0.5;}
	.st10{fill:#002673;stroke:#002673;stroke-width:1.102;stroke-linecap:round;stroke-linejoin:round;}
	.st11{fill:#FFFFFF;stroke:#002673;stroke-width:1.102;stroke-linecap:round;}
	.st12{fill:none;stroke:#002673;stroke-width:1.102;}
	.st13{fill:#002673;stroke:#002673;stroke-width:0.5;}
</style>
<g>
	<polygon class="st0" points="1463.6,454.5 1463.6,1278.2 947.8,1576 892.3,1608 750.3,1690 608.3,1608 552.8,1576 37,1278.2 
		37,454.5 552.8,156.8 608.3,124.7 750.3,42.7 892.3,124.7 947.8,156.8 	"/>
</g>
<g>
	<path class="st1" d="M966.3,124.7L750.3,0l-216,124.7L0,433.2v866.4L534.3,1608l216,124.7l216-124.7l534.3-308.5V433.2L966.3,124.7
		z M1463.6,1278.2L947.8,1576l-55.5,32l-142,82l-142-82l-55.5-32L37,1278.2V454.5l515.8-297.8l55.5-32l142-82l142,82l55.5,32
		l515.8,297.8V1278.2z"/>
	<path class="st2" d="M0,693.7v123.8c-9.3-2.1-18.6-4.4-27.9-6.8c-36.8-9.1-73.6-18.2-111.2-18.2c-37.6,0-74.4,9.1-111.2,18.2
		c-36.8,9.1-74.4,18.2-111.9,18.2V705.1c37.6,0,75.1-9.1,111.9-18.2c36.8-9.1,73.6-18.2,111.2-18.2c37.6,0,74.3,9.1,111.2,18.2
		C-18.6,689.2-9.3,691.5,0,693.7z"/>
	<path class="st2" d="M534.3,124.7L0,433.2v136.7c-9.3-2.1-18.6-4.4-27.9-6.8C-64.7,554-101.5,545-139.1,545
		c-37.6,0-74.4,9.1-111.2,18.2c-36.8,9.1-74.4,18.2-111.9,18.2V124.7H534.3z"/>
	<path class="st2" d="M0,941.2v123.8c-9.3-2.1-18.6-4.4-27.9-6.8c-36.8-9.1-73.6-18.2-111.2-18.2c-37.6,0-74.4,9.1-111.2,18.2
		c-36.8,9.1-74.4,18.2-111.9,18.2V952.6c37.6,0,75.1-9.1,111.9-18.2c36.8-9.1,73.6-18.2,111.2-18.2c37.6,0,74.3,9.1,111.2,18.2
		C-18.6,936.7-9.3,939,0,941.2z"/>
	<path class="st2" d="M534.3,1608h-896.5v-407.9c37.6,0,75.1-9.1,111.9-18.2c36.8-9.1,73.6-18.2,111.2-18.2
		c37.6,0,74.3,9.1,111.2,18.2c9.3,2.3,18.6,4.6,27.9,6.8v110.8L534.3,1608z"/>
	<polygon class="st2" points="1463.6,454.5 1463.6,1278.2 947.8,1576 892.3,1608 608.3,1608 552.8,1576 37,1278.2 37,454.5 
		552.8,156.8 608.3,124.7 892.3,124.7 947.8,156.8 	"/>
	<path class="st2" d="M1862.7,705.1v123.8c-37.6,0-75.1-9.1-111.9-18.2c-36.8-9.1-73.6-18.2-111.2-18.2c-37.5,0-74.3,9.1-111.2,18.2
		c-9.3,2.3-18.6,4.6-27.9,6.8V693.7c9.3-2.1,18.6-4.4,27.9-6.8c36.8-9.1,73.6-18.2,111.2-18.2c37.6,0,74.3,9.1,111.2,18.2
		C1787.6,696,1825.2,705.1,1862.7,705.1z"/>
	<path class="st2" d="M1862.7,952.6v123.8c-37.6,0-75.1-9.1-111.9-18.2c-36.8-9.1-73.6-18.2-111.2-18.2c-37.5,0-74.3,9.1-111.2,18.2
		c-9.3,2.3-18.6,4.6-27.9,6.8V941.2c9.3-2.1,18.6-4.4,27.9-6.8c36.8-9.1,73.6-18.2,111.2-18.2c37.6,0,74.3,9.1,111.2,18.2
		C1787.6,943.5,1825.2,952.6,1862.7,952.6z"/>
	<path class="st2" d="M1862.7,1200.1V1608H966.3l534.3-308.5v-110.8c9.3-2.1,18.6-4.4,27.9-6.8c36.8-9.1,73.6-18.2,111.2-18.2
		c37.6,0,74.3,9.1,111.2,18.2C1787.6,1191,1825.2,1200.1,1862.7,1200.1z"/>
	<path class="st2" d="M1528.5,563.1c-9.3,2.3-18.6,4.6-27.9,6.8V433.2L966.3,124.7h896.4v456.6c-37.6,0-75.1-9.1-111.9-18.2
		c-36.8-9.1-73.6-18.2-111.2-18.2C1602.1,545,1565.3,554,1528.5,563.1z"/>
	<g transform="translate(0,112.48529)">
		<path class="st3" d="M750.3,249.8c-12,15.4-25.3,43.1-28.9,70.6c-20.1-12.8-44.4-20.2-61-21.6c1.9,12,7.1,27.9,15.3,43
			c-15.2,1.1-29.5,4.8-39.3,9.1c12.1,15.3,39,36,65.4,39.9c9.7,1.4,17.5-1,23.6-4.7c9.6,1,18.3-1.5,24.4-3.9
			c0.1-0.4,0.2-0.9,0.3-1.3c0.1,0,0.1,0.1,0.2,0.1c0.1,0,0.1-0.1,0.2-0.1c0.1,0.4,0.2,0.9,0.3,1.3c6.1,2.4,14.8,5,24.4,3.9
			c6.1,3.7,13.9,6.1,23.6,4.7c26.4-3.9,53.3-24.6,65.4-39.9c-9.7-4.4-24.1-8.1-39.3-9.1c8.2-15.2,13.4-31,15.3-43
			c-16.6,1.5-40.9,8.8-61,21.6C775.6,292.9,762.3,265.2,750.3,249.8z"/>
		<g transform="translate(5e-6,-63.247451)">
			<path class="st4" d="M763.4,438.9c1.9-9.3,7.1-23.8,24.2-29.8c25.2-8.7,58.7-2.9,76.5,5.1c-12.1,15.3-39,36-65.4,39.9
				C780.8,456.7,769.4,446.2,763.4,438.9z"/>
			<path class="st4" d="M750.8,445.5c-3.4-10.7-6.5-28.7,7.7-44.7c20.8-23.5,58.7-36.7,81.6-38.8c-3.6,22.8-19.3,59.6-44.2,78.8
				C779.1,453.9,761.3,449.6,750.8,445.5z"/>
			<path class="st4" d="M737.2,438.9c-1.9-9.3-7.1-23.8-24.2-29.8c-25.2-8.7-58.7-2.9-76.5,5.1c12.1,15.3,39,36,65.4,39.9
				C719.7,456.7,731.2,446.2,737.2,438.9z"/>
			<path class="st4" d="M749.7,445.5c3.4-10.7,6.5-28.7-7.7-44.7c-20.8-23.5-58.7-36.7-81.6-38.8c3.6,22.8,19.3,59.6,44.2,78.8
				C721.5,453.9,739.3,449.6,749.7,445.5z"/>
			<path class="st4" d="M750.3,444.2c-10.9-5.1-27.3-16-29.4-38.8c-3.2-33.6,14.2-72.9,29.4-92.4c15.2,19.5,32.6,58.8,29.4,92.4
				C777.5,428.2,761.2,439.1,750.3,444.2z"/>
			<path class="st5" d="M750.3,321.4c-0.2,5.3-0.3,10.6-0.5,16l-8.9-4.1c2.8,3.7,5.8,5.3,8.8,6.5c-0.1,4.1-0.2,8.1-0.3,12.2
				c-5.5-0.3-9.8-1-16.3-1.9c4.6,2.8,10.6,4,16.3,4.3c-0.1,4.1-0.2,8.2-0.3,12.4c-7.5-0.6-14.5,0-21.6,0.6c7.1,1,14.6,1.5,21.6,2.2
				c-0.1,4-0.1,7.9-0.1,11.9c-7.8-0.5-15.4,0.5-22.7,2.8c7.5-0.4,15.1-0.5,22.7-0.1c0,3.7,0,7.3,0,11c-13.9-0.3-19,2-23.2,4.9
				c7.5-2.1,15.3-3,23.3-2.6c0,3.8,0.1,7.5,0.2,11.3c-11.4-0.1-17.5,2.1-22.2,6.8c6.2-2.8,13.5-4.8,22.3-4.7
				c0.1,3.1,0.1,6.2,0.2,9.4c-5.4-0.1-10.7,0-16.2,6.8c4.5-3.1,9.7-5,16.3-4.7c0.1,2.4,0.2,4.9,0.3,7.3c-4,0.2-7.3,1.6-8.5,5.1
				c2.3-2.5,5.3-3.2,8.6-3.2c0.1,2.7,0.3,5.4,0.4,8.1c0.2-2.7,0.4-5.4,0.6-8.1c3.2,0,6.2,0.7,8.4,3.2c-1.2-3.5-4.4-4.9-8.3-5.1
				c0.1-2.4,0.3-4.9,0.4-7.3c6.4-0.3,11.6,1.6,16,4.7c-5.5-6.7-10.7-6.9-16-6.9c0.1-3.1,0.2-6.2,0.3-9.3c8.7-0.1,15.8,1.9,22,4.7
				c-4.7-4.7-10.7-6.9-21.9-6.8c0.1-3.8,0.1-7.5,0.1-11.3c7.9-0.3,15.6,0.6,23.1,2.6c-4.2-2.9-9.3-5.2-23.1-4.9
				c0-3.7-0.1-7.3-0.1-11c7.5-0.5,15.1-0.4,22.6,0.1c-7.3-2.3-14.8-3.4-22.6-2.8c-0.1-4-0.2-7.9-0.3-11.9c7.1-0.7,14.6-1.2,21.7-2.2
				c-7.1-0.7-14.2-1.3-21.8-0.6c-0.1-4.1-0.2-8.3-0.4-12.4c5.7-0.4,11.9-1.5,16.5-4.3c-6.6,1-11,1.7-16.6,2
				c-0.1-4.1-0.2-8.1-0.3-12.1c3.1-1.3,6.2-2.8,9-6.6l-9.1,4.2C750.4,332.1,750.3,326.8,750.3,321.4z"/>
			<path class="st5" d="M717.6,417.4c-0.3-1.4-0.5-2.7-0.8-4.1c-1.6-1.5-3.2-3-4.8-4.5l0,0c-0.7-0.7-1.4-1.3-2.1-2
				c1.8-2.2,3.6-4.2,5.5-6.3c0-1-0.1-1.9-0.1-2.9c-2.6,2.2-5.1,4.7-7.3,7.4c-2.7-2.5-5.5-5.1-8.3-7.6c4-5.2,8.5-10.6,12.3-16.1
				c-5,4.4-9.9,8.8-14.2,14.3c-2.9-2.6-5.7-5.1-8.6-7.7c3.4-4.1,6.4-9,7.4-13.9c-3.5,5-5.7,8.4-9,12.3c-2.8-2.5-5.7-5.1-8.5-7.6
				c1.1-2.9,1.9-5.8,1.1-10.1l-2.9,8.6c-3.7-3.3-7.4-6.6-11.1-9.8c3.6,3.4,7.2,6.9,10.8,10.3l-8.6,3.6c4.5,0.5,7.4-0.6,10.3-1.9
				c2.7,2.6,5.4,5.2,8.1,7.9c-3.7,3.7-7,6.1-11.9,10c4.9-1.3,9.6-4.8,13.5-8.4c2.7,2.7,5.4,5.4,8.2,8.1c-2.7,2.4-5.1,5-7.3,7.6
				c-2.1,2.5-4.1,5.1-6.1,7.7c2.9-2.4,5.8-5,8.7-7.5c2.2-2,4.4-4,6.6-5.9c2.6,2.6,5.3,5.2,7.9,7.8c-0.1,0.1-0.2,0.1-0.2,0.2
				c-5.2,4.9-9.3,10.6-12.3,17c4.5-5.4,9.2-10.7,14.3-15.5c2.4,2.4,4.9,4.8,7.4,7.1c-8.9,9.2-10.6,14.1-11.3,18.8
				c3.3-6.4,7.6-12.2,12.9-17.4c0.2,0.2,0.5,0.5,0.8,0.7C717.7,417.7,717.7,417.5,717.6,417.4z M834.4,367.7
				c-3.7,3.3-7.4,6.5-11.1,9.8l-2.9-8.6c-0.8,4.3,0.1,7.2,1.1,10.1c-2.8,2.5-5.7,5-8.5,7.6c-3.3-3.9-5.5-7.3-9-12.3
				c1,4.9,4.1,9.8,7.4,13.9c-2.9,2.6-5.8,5.1-8.6,7.7c-4.4-5.6-9.3-9.9-14.3-14.3c3.8,5.4,8.3,10.8,12.3,16.1
				c-2.7,2.5-5.5,5.1-8.2,7.6c-2-2.5-4.2-4.7-6.5-6.8c0,1,0,2-0.1,3c1.6,1.8,3.2,3.6,4.7,5.5c-0.7,0.7-1.4,1.3-2.1,2
				c-1.4,1.3-2.9,2.7-4.3,4c-0.5,1.8-1.1,3.6-1.7,5.3c0.3-0.3,0.7-0.6,1-1c5.3,5.2,9.5,11,12.9,17.4c-0.7-4.7-2.4-9.6-11.3-18.8
				c2.5-2.3,4.9-4.8,7.4-7.1c5.1,4.8,9.8,10.1,14.3,15.5c-3-6.4-7.1-12.1-12.3-17c-0.1-0.1-0.2-0.1-0.2-0.2c2.6-2.6,5.3-5.2,7.9-7.8
				c2.2,1.9,4.4,3.9,6.6,5.9c2.9,2.6,5.8,5.2,8.7,7.5c-2-2.6-4-5.2-6.1-7.7c-2.2-2.6-4.6-5.2-7.3-7.6c2.7-2.7,5.4-5.4,8.2-8.1
				c3.9,3.7,8.5,7.1,13.5,8.4c-4.9-3.9-8.2-6.3-11.9-10c2.7-2.7,5.4-5.3,8.1-7.9c2.8,1.3,5.8,2.4,10.3,1.9l-8.6-3.6
				C827.2,374.5,830.8,371.1,834.4,367.7z M778.3,427c-0.4,0.6-0.8,1.2-1.1,1.8c3.9,4.8,6.4,9.8,8,14.7
				C785.3,438.2,783.5,433.3,778.3,427z M722,427.4c-5.1,6.1-6.8,10.9-6.6,16.2c1.6-4.8,4.1-9.7,7.8-14.4
				C722.9,428.5,722.4,428,722,427.4z M728.9,436.2c-1.5,2.6-2.3,5.8-1.7,10.4c0.5-3.1,1.4-6.1,3.1-9
				C729.9,437.2,729.4,436.7,728.9,436.2z M771.6,436.2c-0.5,0.5-0.9,1-1.4,1.5c0,0,0,0.1,0,0.1c1.7,2.8,2.7,5.8,3.1,8.9
				C773.9,441.9,773.1,438.7,771.6,436.2z M737.8,443.8c-0.3-0.2-0.5-0.4-0.8-0.6c0,0.9,0.2,1.9,0.7,2.9
				C737.6,445.3,737.6,444.5,737.8,443.8z M763.6,443.5c-0.3,0.2-0.5,0.4-0.8,0.6c0.1,0.6,0.1,1.3,0.1,2
				C763.4,445.2,763.5,444.3,763.6,443.5z"/>
			<path class="st5" d="M857.7,415.7c-4.1,0.9-8.2,1.8-12.3,2.7l1.5-7.6c-2.4,2.8-3,5.5-3.4,8c-3.2,0.7-6.3,1.3-9.5,2
				c-0.8-4.2-1-7.7-1.6-12.9c-1.3,4.1-1,8.9-0.3,13.3c-3.2,0.7-6.4,1.4-9.6,2.1c-0.2-1.1-0.4-2-0.6-3c-0.6,0.8-1.1,1.7-1.7,2.5
				c0,0.3,0.1,0.7,0.2,1c-0.4,0.1-0.8,0.2-1.1,0.3c-0.6,0.8-1.1,1.6-1.7,2.4c1.1-0.3,2.2-0.7,3.3-1c1.9,5.3,3.7,11,5.8,16.3
				c-0.8-5.6-1.7-11.1-3.6-16.8c3.1-0.9,6.2-1.7,9.4-2.6c1.3,4.3,3.4,8.8,6.5,11.8c-2-4.9-3.4-8.1-4.7-12.3c3.1-0.9,6.2-1.7,9.3-2.5
				c1.6,2.1,3.3,4.2,6.8,5.7l-5-6.2C849.5,417.8,853.6,416.8,857.7,415.7z M812.9,432.4c-0.5,0.7-1.1,1.3-1.6,2
				c1,3.8,1.9,7.7,2.6,11.6C814.2,441.4,813.9,436.9,812.9,432.4z M803.1,442.6c-0.5,0.4-0.9,0.7-1.4,1c0.1,1.9,0.2,3.8,0.1,5.7
				C802.5,447.5,803.1,445.4,803.1,442.6z M789.8,450.7c0,0.2,0,0.4-0.1,0.6c0.2-0.3,0.3-0.5,0.4-0.8
				C790.1,450.6,790,450.7,789.8,450.7z M681.3,424.2c-0.4-0.1-0.8-0.2-1.1-0.3c0-0.3,0.1-0.7,0.2-1c-0.6-0.8-1.2-1.7-1.7-2.5
				c-0.2,1-0.4,2-0.6,3c-3.2-0.7-6.4-1.4-9.6-2.1c0.8-4.4,1-9.2-0.3-13.3c-0.5,5.2-0.7,8.6-1.6,12.9c-3.2-0.7-6.3-1.3-9.5-2
				c-0.4-2.5-1-5.2-3.4-8l1.5,7.6c-4.1-0.9-8.2-1.8-12.3-2.7c4.1,1,8.2,2.1,12.3,3.2l-5,6.2c3.5-1.5,5.2-3.5,6.8-5.7
				c3.1,0.8,6.2,1.7,9.3,2.5c-1.3,4.2-2.7,7.5-4.7,12.3c3.1-3,5.2-7.5,6.5-11.8c3.1,0.9,6.2,1.7,9.4,2.6c-2,5.7-2.8,11.2-3.7,16.8
				c2.1-5.3,3.9-11,5.8-16.3c1.1,0.3,2.2,0.7,3.3,1C682.4,425.8,681.9,425,681.3,424.2z M687.6,432.4c-1,4.5-1.3,9-1,13.6
				c0.7-3.9,1.6-7.7,2.6-11.6C688.7,433.7,688.1,433.1,687.6,432.4z M698.8,443.6c-0.5-0.3-0.9-0.7-1.4-1c0,2.9,0.6,4.9,1.3,6.8
				C698.7,447.4,698.7,445.5,698.8,443.6z M710.7,450.7c-0.1-0.1-0.2-0.1-0.3-0.2c0.2,0.3,0.3,0.5,0.4,0.8
				C710.8,451.2,710.8,450.9,710.7,450.7z"/>
		</g>
	</g>
	<path class="st6" d="M305.6,792.5c-37.6,0-74.3,9.1-111.2,18.2c-36.8,9.1-73.6,18.2-111.2,18.2c-15.5,0-30.9-1.5-46.2-4v123.8
		c15.3,2.5,30.7,4,46.2,4c37.6,0,74.4-9.1,111.2-18.2c36.8-9.1,73.6-18.2,111.2-18.2c18.8,0,37.3,2.2,55.8,5.6h0
		c-0.4-4.9-0.7-9.8-0.9-14.8c0-0.1,0-0.2,0-0.4c0-0.4,0-0.8,0-1.2c0-0.1,0-0.1,0-0.2c0-0.6,0-1.2-0.1-1.7c-0.1-2.4-0.2-4.8-0.2-7.2
		c0-0.8,0-1.5,0-2.3c0-1.4,0-2.8,0-4.2c0-3.4,0-6.7,0.1-10.1c0-1.7,0.1-3.3,0.2-5c0.1-1.7,0.1-3.3,0.2-5c0.2-3.3,0.4-6.6,0.6-9.9
		c0.1-1.6,0.3-3.3,0.4-4.9c0.1-1.7,0.3-3.3,0.5-4.9c0.2-1.6,0.3-3.3,0.5-4.9c0.2-1.5,0.3-3.1,0.5-4.6c0-0.1,0-0.2,0-0.3
		c0.2-1.6,0.4-3.2,0.7-4.9c0.2-1.5,0.4-3.1,0.7-4.6c0-0.1,0-0.2,0-0.2c0.2-1.3,0.4-2.5,0.6-3.8c0.1-0.7,0.2-1.4,0.3-2.1
		c0.2-1.2,0.4-2.5,0.7-3.7c0.3-1.6,0.6-3.2,0.9-4.8c0.2-1.2,0.5-2.5,0.7-3.7c0.1-0.5,0.2-1,0.3-1.5c0.3-1.4,0.6-2.9,0.9-4.3
		c0.3-1.6,0.7-3.2,1.1-4.7c0.1-0.6,0.3-1.2,0.4-1.9C349,795.6,327.4,792.5,305.6,792.5z M1417.3,828.8c-37.6,0-74.3-9.1-111.2-18.2
		c-36.8-9.1-73.6-18.2-111.2-18.2c-37.6,0-74.4,9.1-111.2,18.2c-20.9,5.2-41.8,10.3-62.9,13.8c5.1,21,7.7,42.9,7.7,65.4
		c0,19.9-2.1,39.3-6.1,58.1c20.5-3.5,40.9-8.5,61.3-13.6c36.8-9.1,73.7-18.2,111.2-18.2c37.6,0,74.3,9.1,111.2,18.2
		c36.8,9.1,73.6,18.2,111.2,18.2c15.5,0,30.9-1.5,46.2-4V824.8C1448.3,827.3,1432.9,828.8,1417.3,828.8z"/>
	<path class="st6" d="M1417.3,1076.4c-37.6,0-74.3-9.1-111.2-18.2c-36.8-9.1-73.6-18.2-111.2-18.2c-37.6,0-74.4,9.1-111.2,18.2
		c-36.8,9.1-73.6,18.2-111.2,18.2c-5.1,0-10.2-0.1-15.2-0.4h-0.1v0l30.5,123.7v0c32.3-2,64.1-9.9,96-17.7
		c36.8-9.1,73.7-18.2,111.2-18.2c37.6,0,74.3,9.1,111.2,18.2c36.8,9.1,73.6,18.2,111.2,18.2c15.5,0,30.9-1.5,46.2-4v-123.8
		C1448.3,1074.8,1432.9,1076.4,1417.3,1076.4z M395.8,1053.1C395.8,1053.1,395.7,1053.1,395.8,1053.1c-29.9-7.1-59.8-13-90.2-13
		c-37.6,0-74.3,9.1-111.2,18.2c-36.8,9.1-73.6,18.2-111.2,18.2c-15.5,0-30.9-1.6-46.2-4v123.8c15.3,2.5,30.7,4,46.2,4
		c37.6,0,74.4-9.1,111.2-18.2c36.8-9.1,73.6-18.2,111.2-18.2s74.4,9.1,111.2,18.2c31.9,7.9,63.8,15.8,96.2,17.7c0,0,0.1,0,0.1,0
		C463,1161.3,422.5,1111,395.8,1053.1z"/>
	<path class="st6" d="M512.1,580.9c-32.1-2-63.7-9.9-95.3-17.7C380,554,343.1,545,305.6,545s-74.3,9.1-111.2,18.2
		c-36.8,9.1-73.6,18.2-111.2,18.2c-15.5,0-30.9-1.5-46.2-4v123.8c15.3,2.5,30.7,4,46.2,4c37.6,0,74.4-9.1,111.2-18.2
		c36.8-9.1,73.6-18.2,111.2-18.2s74.4,9.1,111.2,18.2c0.1,0,0.1,0,0.2,0c7.2-11.8,15.1-23.2,23.5-34.1c1-1.2,1.9-2.5,2.9-3.7
		c1-1.2,1.9-2.5,2.9-3.7c1-1.2,2-2.4,3-3.6c0.9-1.1,1.8-2.1,2.6-3.2c0.9-1.1,1.9-2.2,2.8-3.3c0.9-1,1.8-2.1,2.7-3.1
		c0.6-0.6,1.1-1.3,1.7-1.9c0.1-0.1,0.2-0.2,0.3-0.3c0.6-0.7,1.2-1.4,1.9-2.1c0.1-0.1,0.1-0.2,0.2-0.2c0.5-0.6,1.1-1.2,1.6-1.8
		c0,0,0,0,0.1-0.1c0.9-0.9,1.8-1.9,2.6-2.8c1-1.1,2-2.2,3.1-3.2C482.3,605.7,496.8,592.7,512.1,580.9L512.1,580.9z M1417.3,581.3
		c-37.6,0-74.3-9.1-111.2-18.2c-36.8-9.1-73.6-18.2-111.2-18.2c-37.6,0-74.4,9.1-111.2,18.2c-31.8,7.8-63.5,15.7-95.7,17.7
		l-22.7,91.9l-1.8,7.2l-6,24.4l0,0c0.1,0.1,0.2,0.2,0.3,0.2c4.9,0.3,9.8,0.4,14.8,0.4c37.6,0,74.3-9.1,111.2-18.2
		c36.8-9.1,73.7-18.2,111.2-18.2c37.6,0,74.3,9.1,111.2,18.2c36.8,9.1,73.6,18.2,111.2,18.2c15.5,0,30.9-1.5,46.2-4V577.3
		C1448.3,579.8,1432.9,581.3,1417.3,581.3z"/>
	<path class="st1" d="M750.3,499.7c-215.4,0-390.2,174.8-390.2,390.2s174.8,390.2,390.2,390.2c89.6,0,171.7-29.7,237.5-80.5
		l-30.5-123.8c-51,57-124.7,92.3-207.1,92.3c-153.6,0-278.3-124.7-278.3-278.3s124.7-278.3,278.3-278.3c82.4,0,156.3,36,207.2,93
		L988,580.8C922.2,530,839.8,499.7,750.3,499.7z"/>
	<g transform="matrix(0.5980287,0.6310928,-0.6310928,0.5980287,430.77026,-441.48344)">
		<path class="st7" d="M1248.7,957.2l311.1-3c9.9-0.1,25.5-2.8,32.9-7.2c-7.4-4.4-23-7.1-32.9-7.2l-311.1-3V957.2z"/>
		<path class="st6" d="M1248.7,945.6l257.7,0.4l27.3,1l-27.3,1l-257.7,0.4V945.6z"/>
		<path class="st6" d="M1229.4,894.8c-7.3,0.2-13.5,5-14.8,10.4c-1.3,5.4,1.2,9,6,11c4.2,1.7,11.5-2.8,11.4-9
			c2.5,2.6,2.7,3.9,3.5,6.5c1.9,6,2.2,14,2,21.8c-9.2-3.8-16.7-1.9-17.4,1.1c-12.1-4.8-18.5-1.6-18.9,1c-9.5-4.5-17.4-2.7-18.5,0.8
			c-5.6-4.4-16.2-3.3-16.3,0.4c-4.3-2.7-7.6-3.1-10.3-2.3c-2.5-2.2-5.7-3.6-9.3-3.6c-7.8,0-14.1,6.3-14.1,14.1s6.3,14.1,14.1,14.1
			c4.5,0,8.5-2.2,11-5.5c5.7,5.3,16,4.2,16.7,0.8c7.5,5.6,17.8,3.3,19.6,1c8.1,3.9,16.9,5.2,18.1,0.8c12.4,6.3,14.8,3.5,18.3,0.9
			c2.3,1.2,4,1.8,5.5,2.2c-0.2,12.8,1.6,24.6,10.2,32.6c11.5,10.7,26.2,3.7,28.2-5c1.3-5.4-1.2-9.1-6-11c-4.2-1.7-11.5,2.8-11.4,9.1
			c-2.5-2.6-2.8-3.9-3.6-6.5c-2.8-9-2.1-22.6-1.3-33.3c1.3-18.2,2.3-35.8-9.4-46.8C1238.6,896.2,1233.8,894.7,1229.4,894.8z"/>
	</g>
	<path class="st8" d="M999.5,905.7c-6.2,1.6-13.6,2.5-23.1,0.2c-10.3-2.5-27.5-4.2-27.9,9.7c-0.2,8.1-5.3,12.5-12.4,13.4
		c-4.2,0.5-8.5-1.9-11.9-5.8l21.6-19.9c0.9-0.8,1.2-2-0.4-3.6l-1.3-1.4c2.8,1,6,0.4,8.3-1.7c1.7-1.6,2.5-3.9,2.5-6.1l10.3-0.3
		l-0.1-6.3c4.1,0.8,8.4-0.2,11.7-3.3c3.9-3.7,5-9.2,3.4-13.9c2.3,0.2,4.7-0.5,6.5-2.2c3.3-3.1,3.5-8.4,0.4-11.7
		c-3.1-3.3-8.4-3.4-11.7-0.3c-1.8,1.7-2.6,4.1-2.5,6.4c-4.6-1.9-10.2-1-14,2.6c-3.2,3.1-4.4,7.4-3.8,11.5l-6.4-0.4l-0.7,10.3
		c-2.2-0.2-4.6,0.5-6.3,2.1c-2.3,2.2-3,5.4-2.1,8.2l-1.4-1.4c-1.6-1.7-2.8-1.4-3.6-0.6l-21.1,20.5c-3.7-3.7-5.9-8-5.2-12.2
		c1.2-7,5.9-11.9,14-11.7c13.9,0.4,13.2-16.9,11.2-27.3c-1.8-9.6-0.5-17,1.5-23.1c0.9-2.9-7-2.1-8,2.1c-1.1-2.8-7.8,0.4-8.4,4.3
		c-2-1.5-7.7,1.6-7.7,6c-3.4-0.3-7.3,3.4-6.6,6.7c-5,1.8-6.9,4.6-5.8,8.5c-3.9,1.3-6,4.5-4.5,9.3c-5,2.5-4.7,6.7-3.2,10.9
		c-3.9,1.9-3.8,7.2-1.6,11.9c-2.7,1.7-3.4,4.9,1.1,13.4c-2.7,1.8-0.5,9.8,5,19L844,978.6c-2.1-8.3-3.5-18.4-2.9-27.7
		c1-13.2,5.2-23.6,17.4-28.4c1,4,4.4,8.4,8.8,11c5,2.9,14.2,2,18.1-3.8c3.8-5.7,1.4-10.7-2.8-15.7c-4.7-5.5-17.8-8.5-27.4-5.4
		c-19.2,6.1-27,24.6-28.2,41.3c-0.8,10.9,0.7,21.8,2.9,31c-2-0.5-4.1-1-6.2-1.3c-7.8-1-16.9,0-23.9,6.6c-7,6.7-8.7,16.1-8.2,24.1
		c0.2,2.8,0.6,5.5,1.2,8c-1.7-0.3-3.3-0.5-5.1-0.6c-6.9-0.2-14.5,1.8-20.6,7.6c-6.2,5.9-8.3,13.7-8.3,20.6c0,2.5,0.2,4.8,0.7,7
		c-1.5-0.3-3-0.5-4.5-0.5c-5.8-0.2-12.3,1.5-17.5,6.4c-1.9,1.8-3.3,3.7-4.3,5.8c-1,2.1-1.8,4.2-2.2,6.4c-0.2,0.7-0.3,1.4-0.3,2.2
		c-0.1,1.1-0.2,2.2-0.2,3.2c0,2,0.2,3.8,0.5,5.6c0,0.2,0.1,0.5,0.1,0.8c-1.3-0.2-2.8-0.4-4.2-0.4c-5-0.1-10.5,1.5-15,5.7
		c-4.5,4.3-6.2,9.8-6.4,14.8c-0.1,1.9,0.1,3.7,0.4,5.3c-7.8-2.4-16.2-1.9-19.1,8.8c5.3-5.7,11.2-5.3,17.4-2.6l-12,11.7l6.2,6.5
		l12.3-11.5c2.4,6.4,2.5,12.3-3.5,17.3c10.8-2.4,11.7-10.8,9.8-18.6c1.7,0.4,3.5,0.6,5.3,0.7c5,0.1,10.7-1.4,15.2-5.6
		c4.5-4.2,6.3-9.7,6.5-14.6c0.1-1.4,0-2.8-0.2-4.2c0.3,0.1,0.7,0.2,1.1,0.2c1.7,0.4,3.4,0.6,5.2,0.7c3.7,0.2,7.7-0.3,11.5-1.9h0
		c2.3-1,4.5-2.3,6.4-4.2c5.2-4.9,7.2-11.3,7.3-17.1c0-1.6-0.1-3.1-0.3-4.5c2.2,0.5,4.5,0.9,7,1c6.9,0.3,14.8-1.3,21-7.2
		c6-5.7,8.5-13.3,8.7-20.1c0-1.8-0.1-3.5-0.3-5.1c2.5,0.7,5.1,1.2,7.9,1.6c8,0.9,17.4-0.2,24.5-6.9c7-6.6,8.5-15.7,7.9-23.6
		c-0.2-2.2-0.5-4.2-0.9-6.2c9.1,2.7,19.8,4.8,30.8,4.6c16.8-0.3,35.7-7.1,42.8-26c3.5-9.4,1.2-22.7-4-27.6
		c-4.8-4.5-9.6-7.2-15.5-3.7c-5.9,3.5-7.3,12.7-4.7,17.8c2.3,4.5,6.5,8.1,10.5,9.3c-5.5,12-16.1,15.6-29.3,15.9
		c-9.3,0.2-19.3-1.8-27.5-4.3l52-48.2c8.8,6,16.8,8.6,18.7,6.1c8.2,4.9,11.5,4.4,13.3,1.8c4.6,2.5,9.8,2.8,12-0.9
		c4.1,1.7,8.3,2.3,11.1-2.6c4.8,1.7,8-0.2,9.5-4c3.8,1.3,6.8-0.4,8.8-5.3c3.2,0.8,7.1-2.8,7-6.2c4.4,0.3,7.8-5.2,6.4-7.4
		c3.9-0.4,7.5-6.9,4.8-8.1C1001.3,912.9,1002.5,905,999.5,905.7z M712.7,1106c-0.1-1-0.2-1.9-0.1-2.9c0.1-3.6,1.3-7.1,4.2-9.9
		c3-2.8,6.5-3.8,10-3.8c1,0,1.9,0.1,2.8,0.3L712.7,1106z M732.4,1109.6c-2.9,2.8-6.5,3.7-10.1,3.7c-1,0-2-0.2-3-0.3l17.2-15.9
		c0.1,0.9,0.2,1.9,0.1,2.8C736.5,1103.4,735.4,1106.8,732.4,1109.6z M743.5,1065.2c3.2-3,7-4.1,11-3.9c1.2,0,2.4,0.2,3.7,0.5
		l-14.6,14.2l-4.1,3.9c-0.2-1.2-0.3-2.4-0.3-3.6c0-1.6,0.2-3.1,0.5-4.5v0C740.4,1069.3,741.5,1067.1,743.5,1065.2z M761.7,1084.4
		c-2,1.9-4.4,3-7,3.4h0c-1.4,0.2-2.8,0.3-4.3,0.2c-1.2-0.1-2.5-0.3-3.7-0.5l4.1-3.8l15-13.9c0.2,1.2,0.4,2.5,0.4,3.7
		C766.1,1077.6,764.9,1081.4,761.7,1084.4z M769.9,1050.6c-0.2-1.5-0.5-3-0.5-4.6c0-4.9,1.3-9.5,5-12.9c3.8-3.6,8.3-4.8,12.9-4.6
		c1.6,0,3.2,0.3,4.7,0.6L769.9,1050.6z M795.5,1055.3c-3.6,3.4-8.3,4.5-13.2,4.2c-1.6-0.1-3.1-0.4-4.6-0.7l22.8-21.1
		c0.3,1.6,0.4,3.2,0.4,4.8C800.7,1047.3,799.3,1051.7,795.5,1055.3z M805.1,1016.3c-0.6-2.2-1-4.5-1.2-6.8
		c-0.4-5.8,0.8-10.8,4.4-14.2c3.6-3.4,8.1-4,13.7-3.2c2.2,0.3,4.4,0.9,6.6,1.5L805.1,1016.3z M835,1023.5c-3.6,3.4-8.7,4.3-14.4,3.6
		c-2.3-0.3-4.6-0.9-6.8-1.6l24-22.2c0.5,2.2,1,4.5,1.2,6.7C839.4,1015.5,838.6,1020,835,1023.5z"/>
	<path class="st9" d="M846.2,795.9v-3.8c3.7-1.2,6.4-4.7,6.4-8.8c0-4.6-3.4-8.4-7.8-9.1c-1.8-8.3-8.9-10.5-14.5-10.5
		c-9.3,0-13.8,4.8-17.4,11.7l-43.4-1.1c3.3-1.2,5.8-3.8,6.5-8c0.4-2.6-2.8-5.9-6-3c-1.4,1.3-1.6,3.5,1.3,5.4
		c-2.3,2.6-9.9,2.2-13.4-1.3s-5.8-9.9-1.2-14.2c1.8,3.9,5.8,2.5,6.8,0c0.7-3.4-2.3-5.5-6.6-3.4c-3.1,1.5-5.6,4.3-6.8,7.6
		c-1.3-3.3-3.8-6.1-6.8-7.6c-1.1-0.5-2.1-0.8-3-0.9c-2.6-0.1-4.2,1.7-3.7,4.3c0.9,2.5,5,3.9,6.8,0c4.6,4.3,2.4,10.6-1.2,14.2
		c-3.5,3.6-11.1,3.9-13.3,1.3c2.8-1.9,2.5-4.2,1.2-5.4c-3.2-2.9-6.4,0.4-6,3c0.7,4.2,3.2,6.8,6.5,8l-43.4,1.1
		c-3.6-6.9-8-11.7-17.3-11.7c-5.5,0-12.6,2.2-14.5,10.5c-4.4,0.8-7.8,4.5-7.8,9.1c0,4.1,2.7,7.6,6.4,8.8v3.8
		c-4.6,0.2-8.8,0.7-13,1.6v1.7c5,1,10.1,1.6,15.8,1.6h0.2c5.7,0,10.9-0.6,15.9-1.6v-1.7c-4.1-0.9-8.4-1.4-13-1.6v-3.8
		c3.7-1.2,6.3-4.7,6.3-8.8c0-4-2.5-7.4-6.1-8.7c1.4-5.1,5.5-6.3,9.8-6.3c7.6,0.1,12.7,7.1,13.7,14.1l63.7,2.8v9.6
		c-4.8,1.3-8.2,5.6-8.2,10.8c0,6.2,5,11.2,11.1,11.2c6.2,0,11.2-5.1,11.2-11.2c0-5.2-3.5-9.5-8.3-10.8v-9.6l63.8-2.8
		c1-7.1,6.1-14.1,13.7-14.1c4.3,0,8.4,1.2,9.8,6.3c-3.6,1.3-6.1,4.7-6.1,8.7c0,4.1,2.6,7.6,6.3,8.8v3.8c-4.5,0.2-8.8,0.7-13,1.6v1.7
		c5,1.1,10.2,1.6,15.9,1.6h0.1c0,0,0,0,0,0h0.1c5.7,0,10.9-0.6,15.9-1.6v-1.7C855,796.7,850.8,796.1,846.2,795.9z M662.1,783.4
		c0,3-2.4,5.3-5.4,5.3c-3,0-5.4-2.4-5.4-5.3c0-3,2.5-5.3,5.4-5.3C659.7,778,662.1,780.4,662.1,783.4z M756.4,805.7
		c0,3.6-2.9,6.4-6.4,6.4c-3.6,0-6.4-2.9-6.4-6.4s2.9-6.4,6.4-6.4C753.5,799.2,756.4,802.1,756.4,805.7z M750,773.8l-7.9,0.2
		c1.9-0.7,3.6-1.8,5-3.2c1.4-1.3,2.4-2.8,3-4.3c0.6,1.5,1.6,3,3,4.3c1.3,1.3,3.1,2.4,4.9,3.2L750,773.8z M843.2,788.7
		c-3,0-5.3-2.4-5.3-5.3c0-3,2.4-5.3,5.3-5.3c3,0,5.4,2.4,5.4,5.3C848.6,786.3,846.2,788.7,843.2,788.7z"/>
	<rect x="746.4" y="623.3" class="st8" width="7.2" height="118.3"/>
	<g transform="matrix(0.9037013,0,0,0.9112171,234.17649,74.82379)">
		<path class="st10" d="M705.5,846.9c0,9.3-14.1,16.9-31.5,16.9c-17.4,0-31.5-7.6-31.5-16.9H705.5z"/>
		<path class="st11" d="M705.5,846.9c0,2.6-14.1,4.8-31.5,4.8c-17.4,0-31.5-2.1-31.5-4.8s14.1-4.8,31.5-4.8
			C691.4,842.2,705.5,844.3,705.5,846.9z"/>
		<path class="st12" d="M674,796.6V852"/>
		<path class="st12" d="M674,796.6l-22.9,47"/>
		<path class="st12" d="M674,796.6l22.9,47"/>
	</g>
	<g transform="matrix(-0.9037013,0,0,0.9112171,565.59889,74.82379)">
		<path class="st10" d="M-69.3,846.9c0,9.3-14.1,16.9-31.5,16.9c-17.4,0-31.5-7.6-31.5-16.9H-69.3z"/>
		<path class="st11" d="M-69.3,846.9c0,2.6-14.1,4.8-31.5,4.8c-17.4,0-31.5-2.1-31.5-4.8s14.1-4.8,31.5-4.8
			C-83.4,842.2-69.3,844.3-69.3,846.9z"/>
		<path class="st12" d="M-100.8,796.6V852"/>
		<path class="st12" d="M-100.8,796.6l-22.9,47"/>
		<path class="st12" d="M-100.8,796.6l22.9,47"/>
	</g>
	<path class="st13" d="M593.1,788.7c-0.7-2.5-2.8-4.8-6.1-6.8L555.5,763l-2.6,4.4l28.4,17c3.9,2.3,6.2,4.2,6.9,5.6
		c0.7,1.4,0.5,3-0.6,4.8c-0.9,1.5-2.1,2.4-3.5,2.6c-1.4,0.2-3.1-0.3-5-1.4l-3.9-2.3l-2.6,4.4l3.3,2c3.3,2,6.3,2.8,8.9,2.4
		c2.6-0.4,4.8-2.1,6.5-5C593.2,794.1,593.8,791.3,593.1,788.7z M612.7,760.5c-0.3-1.6-0.9-3.2-1.9-4.6c-1-1.4-3-3.4-6-5.9
		l-23.6-19.8l-3.3,3.9l24.3,20.4c3.1,2.6,4.9,5.1,5.5,7.4c0.5,2.3-0.2,4.7-2.2,7c-1.9,2.3-4,3.4-6.1,3.3c-2.1-0.2-4.9-1.7-8.3-4.5
		l-24.4-20.4l-3.4,4l23.6,19.8c3.1,2.6,5.3,4.3,6.8,5.1c1.5,0.8,2.9,1.3,4.2,1.3c1.9,0.1,3.9-0.3,5.8-1.2c1.9-1,3.7-2.4,5.3-4.3
		c1.5-1.8,2.6-3.8,3.2-5.7C612.9,764.5,613,762.5,612.7,760.5z M643.6,738.2l-30-36.5l-3.9,3.2l26.1,31L597.3,715l-5.5,4.5l30,36.5
		l3.9-3.2l-26.8-32l39.3,21.7L643.6,738.2z M664.7,706.1l-4.6,2.5l0.4,0.6c2,3.6,2.8,6.7,2.7,9.3c-0.2,2.6-1.5,4.6-3.8,5.9
		c-2.9,1.6-5.7,1.5-8.5-0.5c-2.7-1.9-5.8-6-9.2-12.2c-3.5-6.3-5.4-11.2-5.7-14.6c-0.3-3.4,1-5.9,3.8-7.4c2.3-1.3,4.5-1.5,6.8-0.6
		c2.2,0.9,4.1,2.7,5.7,5.6l4.5-2.5l-0.3-0.5c-2.2-4-5-6.6-8.2-7.7c-3.3-1.1-6.8-0.5-10.6,1.5c-4.5,2.5-6.9,6-7,10.6
		c-0.1,4.6,1.9,10.7,6.1,18.3c4.1,7.3,8.1,12.2,12.1,14.6c4,2.4,8.1,2.4,12.4,0c4-2.2,6.3-5.3,6.9-9.2
		C668.6,716,667.5,711.4,664.7,706.1z M677.9,674.4l10.7-3.7l-1.6-4.6l-27.2,9.5l1.6,4.6l11.4-4l14,40l5.1-1.8L677.9,674.4z
		 M713.8,660.7l-6.6,1.1l-4.7,48.8l5.3-0.9l1.1-14l14.8-2.5l5.8,12.8l5.3-0.9L713.8,660.7z M709.2,690.7l2-25.5l10.4,23.3
		L709.2,690.7z M788,660.9l-4.9,32.8c-0.7,4.5-1.5,7.3-2.5,8.5c-1,1.2-2.6,1.6-4.7,1.3c-1.7-0.2-3-1-3.7-2.2c-0.7-1.2-0.9-3-0.6-5.1
		l0.7-4.5l-5-0.7l-0.6,3.8c-0.6,3.9-0.2,6.9,1.2,9.2c1.4,2.2,3.8,3.6,7.1,4.1c3.7,0.5,6.6,0,8.6-1.6c2.1-1.6,3.4-4.4,4-8.3l5.4-36.3
		L788,660.9z M827.5,671l-9.5,30.3c-1.2,3.9-2.8,6.5-4.8,7.9c-2,1.4-4.4,1.6-7.3,0.7c-2.9-0.9-4.7-2.4-5.4-4.4
		c-0.7-2-0.4-5.2,0.9-9.4l9.5-30.3l-5-1.6l-9.2,29.4c-1.2,3.8-1.9,6.6-2,8.2c-0.2,1.7,0,3.2,0.4,4.4c0.6,1.8,1.7,3.5,3.4,4.9
		c1.6,1.4,3.6,2.5,6,3.2c2.3,0.7,4.5,1,6.5,0.8c2-0.2,3.9-0.8,5.6-1.9c1.4-0.9,2.6-2.1,3.5-3.5s2-4.1,3.2-7.9l9.2-29.4L827.5,671z
		 M866,688.6l-28.4,31.2l9.2-41.1l-5.1-2.6l-9.9,48l5.6,2.9l33.2-36L866,688.6z M886.5,702.2l-38.7,30l4.3,3.2l10.9-8.8l12,9
		l-5.3,13.1l4.3,3.2l17.9-45.6L886.5,702.2z M866.8,723.5l19.9-16l-9.8,23.6L866.8,723.5z M925.9,738.3l-29.3,28l18.5-39.6l-4.8-5.2
		l-34.6,32.2l3.5,3.7l30.2-28.8l-19.2,40.6l4.6,4.9l34.6-32.2L925.9,738.3z M935.7,750.1l-4,2.7l6.7,10.1l-35.4,23.4l3,4.5
		l35.4-23.4l6.2,9.4l4-2.7L935.7,750.1z"/>
</g>
<g>
</g>
<g>
</g>
<g>
</g>
<g>
</g>
<g>
</g>
<g>
</g>
<g>
</g>
<g>
</g>
<g>
</g>
<g>
</g>
<g>
</g>
<g>
</g>
<g>
</g>
<g>
</g>
<g>
</g>
</svg>
